<mxfile host="app.diagrams.net" modified="2022-12-05T08:22:37.948Z" agent="5.0 (Windows NT 10.0; Win64; x64) AppleWebKit/537.36 (KHTML, like Gecko) Chrome/108.0.0.0 Safari/537.36" etag="155rx5IA31uhymhxCd9S" version="20.4.1" type="github">
  <diagram name="Page-1" id="42789a77-a242-8287-6e28-9cd8cfd52e62">
    <mxGraphModel dx="1209" dy="818" grid="1" gridSize="10" guides="1" tooltips="1" connect="1" arrows="1" fold="1" page="1" pageScale="1" pageWidth="1100" pageHeight="850" background="none" math="0" shadow="0">
      <root>
        <mxCell id="0" />
        <mxCell id="1" parent="0" />
        <mxCell id="1ea317790d2ca983-13" value="shutdown()" style="edgeStyle=none;html=1;labelBackgroundColor=none;startArrow=none;startFill=0;endArrow=classicThin;endFill=1;jettySize=auto;orthogonalLoop=1;strokeColor=#B3B3B3;strokeWidth=1;fontFamily=Verdana;fontSize=12;entryX=0.019;entryY=0.617;entryDx=0;entryDy=0;entryPerimeter=0;curved=1;" parent="1" source="1ea317790d2ca983-9" target="1ea317790d2ca983-1" edge="1">
          <mxGeometry relative="1" as="geometry">
            <mxPoint x="390" y="60" as="targetPoint" />
            <Array as="points">
              <mxPoint x="230" y="110" />
            </Array>
          </mxGeometry>
        </mxCell>
        <mxCell id="1ea317790d2ca983-14" value="任务队列为空,没有工作线程" style="edgeStyle=none;html=1;labelBackgroundColor=none;startArrow=none;startFill=0;startSize=5;endArrow=classicThin;endFill=1;endSize=5;jettySize=auto;orthogonalLoop=1;strokeColor=#B3B3B3;strokeWidth=1;fontFamily=Verdana;fontSize=12;curved=1;" parent="1" source="1ea317790d2ca983-1" target="1ea317790d2ca983-3" edge="1">
          <mxGeometry relative="1" as="geometry">
            <Array as="points">
              <mxPoint x="650" y="110" />
            </Array>
          </mxGeometry>
        </mxCell>
        <mxCell id="1ea317790d2ca983-1" value="SHUTDOWN" style="ellipse;whiteSpace=wrap;html=1;rounded=0;shadow=1;comic=0;labelBackgroundColor=none;strokeWidth=1;fontFamily=Verdana;fontSize=12;align=center;" parent="1" vertex="1">
          <mxGeometry x="400" y="80" width="100" height="70" as="geometry" />
        </mxCell>
        <mxCell id="1ea317790d2ca983-15" value="terminated()" style="edgeStyle=none;rounded=1;html=1;labelBackgroundColor=none;startArrow=none;startFill=0;startSize=5;endArrow=classicThin;endFill=1;endSize=5;jettySize=auto;orthogonalLoop=1;strokeColor=#B3B3B3;strokeWidth=1;fontFamily=Verdana;fontSize=12" parent="1" source="1ea317790d2ca983-3" target="1ea317790d2ca983-4" edge="1">
          <mxGeometry relative="1" as="geometry" />
        </mxCell>
        <mxCell id="1ea317790d2ca983-3" value="&lt;span&gt;TIDYING&lt;/span&gt;" style="ellipse;whiteSpace=wrap;html=1;rounded=0;shadow=1;comic=0;labelBackgroundColor=none;strokeWidth=1;fontFamily=Verdana;fontSize=12;align=center;" parent="1" vertex="1">
          <mxGeometry x="610" y="180" width="100" height="70" as="geometry" />
        </mxCell>
        <mxCell id="1ea317790d2ca983-4" value="&lt;span&gt;TERMINATED&lt;/span&gt;" style="ellipse;whiteSpace=wrap;html=1;rounded=0;shadow=1;comic=0;labelBackgroundColor=none;strokeWidth=1;fontFamily=Verdana;fontSize=12;align=center;" parent="1" vertex="1">
          <mxGeometry x="850" y="180" width="100" height="70" as="geometry" />
        </mxCell>
        <mxCell id="1ea317790d2ca983-17" value="没有工作线程" style="edgeStyle=none;html=1;labelBackgroundColor=none;startArrow=none;startFill=0;startSize=5;endArrow=classicThin;endFill=1;endSize=5;jettySize=auto;orthogonalLoop=1;strokeColor=#B3B3B3;strokeWidth=1;fontFamily=Verdana;fontSize=12;entryX=0.5;entryY=1;entryDx=0;entryDy=0;exitX=1;exitY=0.5;exitDx=0;exitDy=0;curved=1;" parent="1" source="1ea317790d2ca983-5" target="1ea317790d2ca983-3" edge="1">
          <mxGeometry relative="1" as="geometry">
            <mxPoint x="531.3979695908379" y="528.9838066792004" as="targetPoint" />
            <Array as="points">
              <mxPoint x="660" y="320" />
            </Array>
          </mxGeometry>
        </mxCell>
        <mxCell id="1ea317790d2ca983-5" value="STOP" style="ellipse;whiteSpace=wrap;html=1;rounded=0;shadow=1;comic=0;labelBackgroundColor=none;strokeWidth=1;fontFamily=Verdana;fontSize=12;align=center;" parent="1" vertex="1">
          <mxGeometry x="400" y="290" width="100" height="70" as="geometry" />
        </mxCell>
        <mxCell id="1ea317790d2ca983-19" value="shutdownNow()" style="edgeStyle=none;html=1;labelBackgroundColor=none;startArrow=none;startFill=0;startSize=5;endArrow=classicThin;endFill=1;endSize=5;jettySize=auto;orthogonalLoop=1;strokeColor=#B3B3B3;strokeWidth=1;fontFamily=Verdana;fontSize=12;entryX=0;entryY=0.5;entryDx=0;entryDy=0;curved=1;" parent="1" source="1ea317790d2ca983-9" target="1ea317790d2ca983-5" edge="1">
          <mxGeometry relative="1" as="geometry">
            <mxPoint x="239.96459461044242" y="320.5099324839375" as="targetPoint" />
            <Array as="points">
              <mxPoint x="230" y="320" />
            </Array>
          </mxGeometry>
        </mxCell>
        <mxCell id="1ea317790d2ca983-9" value="RUNNING" style="ellipse;whiteSpace=wrap;html=1;rounded=0;shadow=1;comic=0;labelBackgroundColor=none;strokeWidth=1;fontFamily=Verdana;fontSize=12;align=center;fillColor=#d5e8d4;strokeColor=#82b366;" parent="1" vertex="1">
          <mxGeometry x="180" y="180" width="100" height="70" as="geometry" />
        </mxCell>
      </root>
    </mxGraphModel>
  </diagram>
</mxfile>
